STARTFONT 2.1
COMMENT Exported by Fony v1.4.7
FONT FreeSans1-0:
SIZE 28 96 96
FONTBOUNDINGBOX 29 27 0 -2
STARTPROPERTIES 6
COPYRIGHT ""
RESOLUTION_X 96
RESOLUTION_Y 96
FONT_ASCENT 26
FONT_DESCENT 2
DEFAULT_CHAR 0
ENDPROPERTIES
CHARS 11
STARTCHAR 048
ENCODING 48
SWIDTH 1152 0
DWIDTH 16 0
BBX 14 22 1 -1
BITMAP
0300
0FE0
3FF0
3870
7038
7038
6018
E018
E01C
E01C
E01C
E01C
E01C
E01C
E018
6018
7038
7038
3870
3FF0
1FE0
0780
ENDCHAR
STARTCHAR 049
ENCODING 49
SWIDTH 1152 0
DWIDTH 16 0
BBX 7 21 3 0
BITMAP
06
06
06
0E
FE
FE
06
06
06
06
06
06
06
06
06
06
06
06
06
06
06
ENDCHAR
STARTCHAR 050
ENCODING 50
SWIDTH 1152 0
DWIDTH 16 0
BBX 14 21 1 0
BITMAP
0100
1FE0
3FF0
7838
701C
601C
E01C
E01C
0018
0038
0070
01E0
07C0
0F00
3C00
3800
7000
6000
FFFC
FFFC
FFFC
ENDCHAR
STARTCHAR 051
ENCODING 51
SWIDTH 1152 0
DWIDTH 16 0
BBX 14 22 1 -1
BITMAP
0200
1FE0
3FF0
7078
6038
E038
E038
0038
0030
07F0
07E0
07F0
0038
0018
001C
E01C
E01C
E018
7038
7FF0
3FE0
0300
ENDCHAR
STARTCHAR 052
ENCODING 52
SWIDTH 1152 0
DWIDTH 16 0
BBX 14 21 1 0
BITMAP
0060
00E0
00E0
01E0
03E0
07E0
06E0
0EE0
1CE0
18E0
30E0
70E0
E0E0
C0E0
FFFC
FFFC
00E0
00E0
00E0
00E0
00E0
ENDCHAR
STARTCHAR 053
ENCODING 53
SWIDTH 1152 0
DWIDTH 16 0
BBX 14 22 1 -1
BITMAP
3FF8
3FF8
3FF8
3000
3000
7000
7000
7100
6FE0
7FF0
7078
6038
001C
001C
001C
001C
E01C
E018
7038
3FF0
1FE0
0700
ENDCHAR
STARTCHAR 054
ENCODING 54
SWIDTH 1152 0
DWIDTH 16 0
BBX 14 22 1 -1
BITMAP
0180
0FE0
1FF0
3838
7038
7018
6000
6000
E380
EFE0
FFF8
F038
F01C
E01C
E01C
601C
601C
7018
3838
3FF0
1FE0
0780
ENDCHAR
STARTCHAR 055
ENCODING 55
SWIDTH 1152 0
DWIDTH 16 0
BBX 14 21 1 0
BITMAP
FFFC
FFFC
FFFC
0018
0038
0030
0060
00E0
00C0
01C0
0180
0380
0300
0700
0600
0600
0E00
0C00
0C00
1C00
1C00
ENDCHAR
STARTCHAR 056
ENCODING 56
SWIDTH 1152 0
DWIDTH 16 0
BBX 14 21 1 -1
BITMAP
1FE0
3FF0
7878
7038
6018
6038
7038
3870
1FE0
1FE0
3CF0
7038
E01C
E01C
E01C
E01C
E01C
7038
3FF0
1FE0
0300
ENDCHAR
STARTCHAR 057
ENCODING 57
SWIDTH 1152 0
DWIDTH 16 0
BBX 14 22 1 -1
BITMAP
0200
1FE0
3FF0
7070
6038
E018
E018
E01C
E01C
E03C
703C
7DFC
3FDC
0F1C
0018
0018
6038
6038
7070
3FE0
1FC0
0700
ENDCHAR
STARTCHAR 058
ENCODING 58
SWIDTH 504 0
DWIDTH 7 0
BBX 3 15 2 0
BITMAP
E0
E0
E0
00
00
00
00
00
00
00
00
00
E0
E0
E0
ENDCHAR
ENDFONT
